<svg width="80" height="80" viewBox="0 0 80 80" fill="none" xmlns="http://www.w3.org/2000/svg">
<path d="M46.1004 63.3339C45.6024 63.3356 45.1104 63.2257 44.6604 63.0123C44.2105 62.7989 43.8141 62.4873 43.5004 62.1006L27.4004 42.1006C26.9101 41.5042 26.6421 40.756 26.6421 39.9839C26.6421 39.2118 26.9101 38.4637 27.4004 37.8673L44.067 17.8673C44.6328 17.1865 45.4459 16.7585 46.3273 16.6772C47.2087 16.5959 48.0863 16.8681 48.767 17.4339C49.4478 17.9997 49.8758 18.8128 49.9571 19.6942C50.0384 20.5756 49.7662 21.4532 49.2004 22.1339L34.3004 40.0006L48.7004 57.8673C49.108 58.3565 49.3669 58.9524 49.4465 59.5842C49.5261 60.216 49.4231 60.8574 49.1495 61.4325C48.876 62.0076 48.4435 62.4923 47.9031 62.8293C47.3627 63.1662 46.7372 63.3414 46.1004 63.3339Z" fill="#161616"/>
</svg>
