<svg width="29" height="29" viewBox="0 0 29 29" fill="none" xmlns="http://www.w3.org/2000/svg">
<path d="M12.7527 7.53999L8.66495 2.82144C8.1937 2.27769 7.32975 2.28011 6.78237 2.82869L3.42079 6.19632C2.42029 7.19803 2.13391 8.68549 2.7127 9.87811C6.17049 17.0374 11.9444 22.8195 19.0989 26.2873C20.2903 26.8661 21.7766 26.5797 22.7771 25.578L26.1701 22.1789C26.7199 21.6292 26.7211 20.7604 26.1725 20.2891L21.4358 16.2231C20.9404 15.7977 20.1707 15.8533 19.6741 16.3512L18.0259 18.0017C17.9415 18.0902 17.8305 18.1485 17.7098 18.1677C17.589 18.1869 17.4654 18.1659 17.3577 18.1081C14.6637 16.5567 12.4289 14.319 10.881 11.6229C10.8231 11.5151 10.8021 11.3912 10.8213 11.2703C10.8405 11.1494 10.8988 11.0381 10.9874 10.9535L12.6307 9.30899C13.1285 8.80874 13.1829 8.0354 12.7527 7.53878V7.53999Z" stroke="#D8606A" stroke-width="2" stroke-linecap="round" stroke-linejoin="round"/>
</svg>
