<?xml version="1.0" encoding="utf-8"?><svg viewBox="0 0 502.66 502.66" xmlns="http://www.w3.org/2000/svg" xmlns:xlink="http://www.w3.org/1999/xlink"><style>:root>svg{display:none}:root>svg:target{display:block}</style><svg fill="none" viewBox="0 0 80 80" id="arrow" xmlns="http://www.w3.org/2000/svg"><path d="M46.1 63.334a3.334 3.334 0 01-2.6-1.233l-16.1-20a3.333 3.333 0 010-4.234l16.667-20a3.338 3.338 0 015.133 4.267L34.3 40l14.4 17.866a3.333 3.333 0 01-2.6 5.467z" fill="#161616"/></svg><svg viewBox="0 0 502.664 502.664" id="icon" xmlns="http://www.w3.org/2000/svg"><g fill="#010002"><path d="M153.821 358.226L0 274.337v-46.463l153.821-83.414v54.574L46.636 250.523l107.185 53.431v54.272zM180.094 387.584L282.103 115.08h32.227L212.084 387.584h-31.99zM348.843 358.226v-54.272l107.164-52.999-107.164-52.59v-53.927l153.821 83.522v46.183l-153.821 84.083z"/></g></svg><svg fill="none" viewBox="0 0 29 29" id="phone-icon" xmlns="http://www.w3.org/2000/svg"><path d="M12.753 7.54L8.665 2.821c-.471-.543-1.335-.54-1.883.008L3.421 6.196c-1 1.002-1.287 2.49-.708 3.682a35.292 35.292 0 0016.386 16.41c1.191.578 2.678.292 3.678-.71l3.393-3.4c.55-.549.551-1.418.002-1.889l-4.736-4.066c-.496-.425-1.265-.37-1.762.128l-1.648 1.65a.558.558 0 01-.668.107 17.59 17.59 0 01-6.477-6.485.56.56 0 01.106-.67l1.644-1.644c.498-.5.552-1.274.122-1.77v.001z" stroke="#D8606A" stroke-width="2" stroke-linecap="round" stroke-linejoin="round"/></svg></svg>